<?xml version="1.0" standalone="no"?>
<!DOCTYPE svg PUBLIC "-//W3C//DTD SVG 20010904//EN"
 "http://www.w3.org/TR/2001/REC-SVG-20010904/DTD/svg10.dtd">
<svg version="1.0" xmlns="http://www.w3.org/2000/svg"
 width="1032.000000pt" height="1032.000000pt" viewBox="0 0 1032.000000 1032.000000"
 preserveAspectRatio="xMidYMid meet">
<metadata>
Created by potrace 1.14, written by Peter Selinger 2001-2017
</metadata>
<g transform="translate(0.000000,1032.000000) scale(0.100000,-0.100000)"
fill="#000000" stroke="none">
<path d="M4659 10056 c-2 -2 -53 -6 -114 -10 -60 -3 -121 -8 -135 -10 -14 -3
-56 -7 -95 -11 -38 -3 -77 -8 -85 -10 -8 -2 -37 -7 -65 -10 -83 -12 -87 -12
-172 -29 -109 -21 -336 -73 -393 -90 -25 -8 -72 -22 -105 -31 -133 -39 -339
-112 -490 -175 -161 -67 -470 -222 -585 -293 -57 -36 -66 -41 -101 -61 -35
-19 -263 -173 -309 -208 -304 -231 -528 -433 -740 -668 -41 -45 -80 -88 -86
-94 -9 -10 -142 -176 -209 -261 -16 -21 -37 -48 -45 -61 -8 -12 -47 -69 -86
-126 -162 -235 -365 -608 -459 -843 -20 -49 -40 -99 -45 -110 -23 -48 -134
-372 -145 -420 -2 -11 -18 -69 -34 -129 -27 -99 -77 -322 -86 -386 -2 -14 -6
-38 -9 -55 -11 -63 -25 -162 -31 -220 -4 -33 -8 -71 -11 -85 -25 -156 -25
-846 0 -1000 2 -14 7 -52 11 -85 8 -75 14 -123 20 -155 3 -14 7 -43 10 -65 3
-22 9 -58 14 -80 5 -22 15 -67 21 -100 77 -398 226 -828 422 -1215 43 -85 90
-175 104 -199 318 -550 670 -973 1133 -1361 29 -25 59 -49 65 -55 6 -5 38 -30
71 -55 33 -25 62 -47 65 -50 15 -15 131 -97 245 -172 379 -250 814 -457 1245
-590 89 -27 285 -80 340 -92 14 -3 57 -12 95 -20 39 -8 84 -17 100 -19 17 -3
37 -7 45 -10 8 -3 31 -8 50 -10 19 -3 87 -12 150 -21 272 -37 363 -41 940 -41
559 0 634 3 915 41 154 20 162 22 325 55 80 17 155 32 168 35 30 6 333 93 352
101 8 3 20 7 25 9 49 12 249 88 375 141 294 125 582 282 830 451 114 78 278
197 290 212 3 3 25 21 50 40 25 19 47 37 50 40 3 3 37 32 75 65 97 83 164 145
266 247 73 73 115 119 234 252 39 43 115 136 182 223 242 315 424 622 603
1018 82 183 228 602 255 735 2 8 10 42 18 75 15 60 57 262 62 300 2 11 10 63
19 115 39 245 50 411 51 740 0 292 -12 491 -40 660 -2 14 -7 45 -10 70 -19
137 -42 258 -86 440 -33 135 -32 131 -84 300 -34 109 -76 231 -95 275 -5 11
-22 54 -38 95 -54 137 -212 467 -262 550 -44 72 -90 151 -90 156 0 2 -5 10
-11 17 -5 7 -37 55 -71 107 -53 83 -160 237 -195 280 -6 8 -51 65 -100 125
-93 117 -117 145 -228 264 -248 265 -502 485 -800 693 -85 59 -303 198 -311
198 -2 0 -23 12 -47 27 -43 28 -379 199 -432 220 -17 7 -55 23 -85 36 -400
176 -984 325 -1420 363 -36 3 -83 8 -105 11 -45 6 -1139 15 -1146 9z"/>
</g>
</svg>
